<svg xmlns="http://www.w3.org/2000/svg" xmlns:svg="http://www.w3.org/2000/svg" xmlns:xlink="http://www.w3.org/1999/xlink" version="1.0" height="868.199984741211pt" width="627.6pt" viewBox="329.9 597.8 635.6 874.199984741211" ><defs><style type="text/css">
            @font-face {
                font-family: 'noto_regular';
                src: url('https://app.creately.com/diagram/assets/fonts/noto/noto-regular.woff') format('woff'),
                     url('https://app.creately.com/diagram/assets/fonts/noto/noto-regular.woff2') format('woff2');
                font-weight: normal;
                font-style: normal;
            }
        p {
            margin: 0;
        }
        </style></defs><defs><style>
            span{ display: inline-block; }
        </style></defs><g id="1msgaex5i9"><g transform="translate(485 660)"><rect x="0" y="0" width="365.0000253915787" height="734.9999771118164" fill="rgba(247,249,249,1)" stroke="#959595" stroke-width="1.5" stroke-linecap="round" stroke-linejoin="round"/></g><g transform="translate(645.0000126957893, 670) rotate(0, 22.5, 0)" width="45" height="18"><text text-decoration="none" x="0.5" fill="rgb(84, 84, 84)" font-size="10pt" font-family="noto_regular"  y="17">System</text><text text-decoration="none" x="44.5" fill="#4b4b4b" font-size="10pt" font-family="noto_regular"  y="17"></text></g></g><g id="1r58ektoue"><g transform="translate(397 786.9)"><ellipse cx="20.5" cy="10.000000074505806" rx="10.25" ry="10.000000074505806" fill="rgba(255,255,255,1)" stroke="#898989" stroke-width="2" stroke-linecap="round" stroke-linejoin="round"/><path d="M 20.5,20.000000149011612 L 20.5,48.00000035762787 L 41,80.00000059604645 M 20.5,48.00000035762787 L 0,80.00000059604645 M 2.0500000000000003,30.000000223517418 L 38.95,30.000000223517418" fill="none" stroke="#898989" stroke-width="2" stroke-linecap="round" stroke-linejoin="round"/><rect x="0" y="0" width="41" height="80.00000059604645" fill="rgba(255,255,255,0.01)" stroke="rgba(255,255,255,0.01)" stroke-width="2" stroke-linecap="round" stroke-linejoin="round"/></g><g transform="translate(401, 876.9000005960464) rotate(0, 16.5, 0)" width="33" height="18"><text text-decoration="none" x="0.5" fill="rgb(84, 84, 84)" font-size="10pt" font-family="noto_regular"  y="17">Actor</text><text text-decoration="none" x="32.5" fill="#4b4b4b" font-size="10pt" font-family="noto_regular"  y="17"></text></g></g><g id="721x8m61ij"><g transform="translate(595 675)"><ellipse cx="60.00000727176666" cy="20.00000160932541" rx="60.00000727176666" ry="20.00000160932541" fill="rgba(0,70,138,1)" stroke="#00468a" stroke-width="2" stroke-linecap="round" stroke-linejoin="round"/></g><g transform="translate(631.0000072717667, 685.5000016093254) rotate(0, 24, 9.5)" width="48" height="19"><text text-decoration="none" x="1" fill="rgb(255, 255, 255)" font-size="9pt" font-family="Arial"  y="17">Register</text><text text-decoration="none" x="47" fill="#4b4b4b" font-size="10pt" font-family="noto_regular"  y="17"></text></g></g><g id="tjvi30p9xo"><g transform="translate(590 725)"><ellipse cx="60.00000727176666" cy="20.00000160932541" rx="60.00000727176666" ry="20.00000160932541" fill="rgba(0,70,138,1)" stroke="#00468a" stroke-width="2" stroke-linecap="round" stroke-linejoin="round"/></g><g transform="translate(633.5000072717667, 735.5000016093254) rotate(0, 16.5, 9.5)" width="33" height="19"><text text-decoration="none" x="1.5" fill="rgb(255, 255, 255)" font-size="9pt" font-family="Arial"  y="17">Login</text><text text-decoration="none" x="31.5" fill="#4b4b4b" font-size="10pt" font-family="noto_regular"  y="17"></text></g></g><g id="1h91u32u4d"><g transform="translate(590 1170) rotate(-1.6962956671839996e-15)"><ellipse cx="60.00000727176666" cy="27.500005394220352" rx="60.00000727176666" ry="27.500005394220352" fill="rgba(0,70,138,1)" stroke="#00468a" stroke-width="2" stroke-linecap="round" stroke-linejoin="round"/></g><g transform="translate(609.5000072717667, 1188.0000053942204) rotate(0, 40.5, 9.5)" width="81" height="19"><text text-decoration="none" x="2.5" fill="rgb(255, 255, 255)" font-size="9pt" font-family="Arial"  y="17">Update&#160;</text><text text-decoration="none" x="46.5" fill="rgb(255, 255, 255)" font-size="9pt" font-family="Arial"  y="17">Menu</text><text text-decoration="none" x="78.5" fill="#4b4b4b" font-size="10pt" font-family="noto_regular"  y="17"></text></g></g><g id="s277yljfa4"><g transform="translate(919 900)"><ellipse cx="20.5" cy="10.624999701976776" rx="10.25" ry="10.624999701976776" fill="rgba(255,255,255,1)" stroke="#898989" stroke-width="2" stroke-linecap="round" stroke-linejoin="round"/><path d="M 20.5,21.249999403953552 L 20.5,50.999998569488525 L 41,84.99999761581421 M 20.5,50.999998569488525 L 0,84.99999761581421 M 2.0500000000000003,31.87499910593033 L 38.95,31.87499910593033" fill="none" stroke="#898989" stroke-width="2" stroke-linecap="round" stroke-linejoin="round"/><rect x="0" y="0" width="41" height="84.99999761581421" fill="rgba(255,255,255,0.01)" stroke="rgba(255,255,255,0.01)" stroke-width="2" stroke-linecap="round" stroke-linejoin="round"/></g><g transform="translate(916.5, 989.9999976158142) rotate(0, 23, 0)" width="46" height="19"><text text-decoration="none" x="1.5" fill="rgb(0, 0, 0)" font-weight="bold" font-size="10pt" font-family="Arial"  y="17">Admin</text><text text-decoration="none" x="44.5" fill="#4b4b4b" font-size="10pt" font-family="noto_regular"  y="17"></text></g></g><g id="yxl756htzl"><g transform="translate(595 830)"><ellipse cx="60.00000727176666" cy="20.00000160932541" rx="60.00000727176666" ry="20.00000160932541" fill="rgba(0,70,138,1)" stroke="#00468a" stroke-width="2" stroke-linecap="round" stroke-linejoin="round"/></g><g transform="translate(618.0000072717667, 840.5000016093254) rotate(0, 37, 9.5)" width="74" height="19"><text text-decoration="none" x="4" fill="rgb(255, 255, 255)" font-size="10pt" font-family="Lato"  y="17">Select&#160;</text><text text-decoration="none" x="42" fill="rgb(255, 255, 255)" font-size="10pt" font-family="Lato"  y="17">Item</text><text text-decoration="none" x="70" fill="#4b4b4b" font-size="10pt" font-family="noto_regular"  y="17"></text></g></g><g id="esngp8lsht"><g transform="translate(595 885)"><ellipse cx="60.00000184774399" cy="20.00000160932541" rx="60.00000184774399" ry="20.00000160932541" fill="rgba(0,70,138,1)" stroke="#00468a" stroke-width="2" stroke-linecap="round" stroke-linejoin="round"/></g><g transform="translate(618.500001847744, 895.5000016093254) rotate(0, 36.5, 9.5)" width="73" height="19"><text text-decoration="none" x="2.5" fill="rgb(255, 255, 255)" font-size="10pt" font-family="Lato"  y="17">Add&#160;</text><text text-decoration="none" x="29.5" fill="rgb(255, 255, 255)" font-size="10pt" font-family="Lato"  y="17">to&#160;</text><text text-decoration="none" x="45.5" fill="rgb(255, 255, 255)" font-size="10pt" font-family="Lato"  y="17">Cart</text><text text-decoration="none" x="70.5" fill="#4b4b4b" font-size="10pt" font-family="noto_regular"  y="17"></text></g></g><g id="15asyq1ipc"><g transform="translate(600 990) rotate(-3.5400954445691854e-15)"><ellipse cx="57.50000470876694" cy="21.000004053115845" rx="57.50000470876694" ry="21.000004053115845" fill="rgba(0,70,138,1)" stroke="#00468a" stroke-width="2" stroke-linecap="round" stroke-linejoin="round"/></g><g transform="translate(602.0000047087669, 993.5000040531158) rotate(0, 55.5, 17.5)" width="111" height="35"><text text-decoration="none" x="4.5" fill="rgb(255, 255, 255)" font-size="10pt" font-family="Lato"  y="14">Proceed&#160;</text><text text-decoration="none" x="56.5" fill="rgb(255, 255, 255)" font-size="10pt" font-family="Lato"  y="14">to&#160;</text><text text-decoration="none" x="72.5" fill="rgb(255, 255, 255)" font-size="10pt" font-family="Lato"  y="14">check&#160;</text><text text-decoration="none" x="43.5" fill="rgb(255, 255, 255)" font-size="10pt" font-family="Lato"  y="36">out&#160;</text><text text-decoration="none" x="67.5" fill="#4b4b4b" font-size="10pt" font-family="noto_regular"  y="36"></text></g></g><g id="1dkscee3dj"><g transform="translate(600 935) rotate(2.352463559459112e-23)"><ellipse cx="60.00000184774399" cy="20.00000160932541" rx="60.00000184774399" ry="20.00000160932541" fill="rgba(0,70,138,1)" stroke="#00468a" stroke-width="2" stroke-linecap="round" stroke-linejoin="round"/></g><g transform="translate(624.000001847744, 945.5000016093254) rotate(0, 36, 9.5)" width="72" height="19"><text text-decoration="none" x="3" fill="rgb(255, 255, 255)" font-size="10pt" font-family="Lato"  y="17">View&#160;</text><text text-decoration="none" x="34" fill="rgb(255, 255, 255)" font-size="10pt" font-family="Lato"  y="17">Order</text><text text-decoration="none" x="69" fill="#4b4b4b" font-size="10pt" font-family="noto_regular"  y="17"></text></g></g><g id="25mg6narx0"><g transform="translate(334.9 869.75)"><rect x="0" y="0" width="164.99862670898438" height="30.729827880859375" fill="rgba(255,255,255,0.01)" stroke="rgba(255,255,255,0.01)" stroke-width="NaN" stroke-linecap="round" stroke-linejoin="round"/></g><g transform="translate(381.89931335449216, 875.6149139404297) rotate(0, 35.5, 9.5)" width="71" height="19"><text text-decoration="none" x="3.5" fill="rgb(0, 0, 0)" font-weight="bold" font-size="10pt" font-family="Lato"  y="17">Customer</text><text text-decoration="none" x="67.5" fill="#4b4b4b" font-size="10pt" font-family="noto_regular"  y="17"></text></g></g><g id="1ti29j8iap"><g transform="translate(595 1045)"><ellipse cx="60.00000184774399" cy="22.5000022649765" rx="60.00000184774399" ry="22.5000022649765" fill="rgba(0,70,138,1)" stroke="#00468a" stroke-width="2" stroke-linecap="round" stroke-linejoin="round"/></g><g transform="translate(611.500001847744, 1058.0000022649765) rotate(0, 43.5, 9.5)" width="87" height="19"><text text-decoration="none" x="2.5" fill="rgb(255, 255, 255)" font-size="10pt" font-family="Lato"  y="17">Update&#160;</text><text text-decoration="none" x="49.5" fill="rgb(255, 255, 255)" font-size="10pt" font-family="Lato"  y="17">Order</text><text text-decoration="none" x="84.5" fill="#4b4b4b" font-size="10pt" font-family="noto_regular"  y="17"></text></g></g><g id="hhgstvhs74"><g transform="translate(590 1250)"><ellipse cx="62.49999898672104" cy="22.49999862909317" rx="62.49999898672104" ry="22.49999862909317" fill="rgba(0,70,138,1)" stroke="#00468a" stroke-width="2" stroke-linecap="round" stroke-linejoin="round"/></g><g transform="translate(610.499998986721, 1254.9999986290932) rotate(0, 42, 17.5)" width="84" height="35"><text text-decoration="none" x="19.5" fill="rgb(255, 255, 255)" font-size="10pt" font-family="Lato"  y="14">Receive&#160;</text><text text-decoration="none" x="2" fill="rgb(255, 255, 255)" font-size="10pt" font-family="Lato"  y="36">Confirmation</text><text text-decoration="none" x="82" fill="#4b4b4b" font-size="10pt" font-family="noto_regular"  y="36"></text></g></g><g id="18gdcbvxk0"><g transform="translate(595 1320) rotate(-1.6962955138382627e-15)"><ellipse cx="60.00001269578934" cy="22.5000077188015" rx="60.00001269578934" ry="22.5000077188015" fill="rgba(0,70,138,1)" stroke="#00468a" stroke-width="2" stroke-linecap="round" stroke-linejoin="round"/></g><g transform="translate(630.0000126957893, 1333.0000077188015) rotate(0, 25, 9.5)" width="50" height="19"><text text-decoration="none" x="1" fill="rgb(255, 255, 255)" font-size="10pt" font-family="Lato"  y="17">Log&#160;</text><text text-decoration="none" x="26" fill="rgb(255, 255, 255)" font-size="10pt" font-family="Lato"  y="17">Out</text><text text-decoration="none" x="49" fill="#4b4b4b" font-size="10pt" font-family="noto_regular"  y="17"></text></g></g><g id="c0k2nb8y5r"><g transform="translate(595 1105) rotate(-1.6962956671839996e-15)"><ellipse cx="60.00000727176666" cy="25.00000473856926" rx="60.00000727176666" ry="25.00000473856926" fill="rgba(0,70,138,1)" stroke="#00468a" stroke-width="2" stroke-linecap="round" stroke-linejoin="round"/></g><g transform="translate(597.5000072717667, 1120.5000047385693) rotate(0, 57.5, 9.5)" width="115" height="19"><text text-decoration="none" x="4.5" fill="rgb(255, 255, 255)" font-size="10pt" font-family="Lato"  y="17">Receive&#160;</text><text text-decoration="none" x="52.5" fill="rgb(255, 255, 255)" font-size="10pt" font-family="Lato"  y="17">For&#160;</text><text text-decoration="none" x="75.5" fill="rgb(255, 255, 255)" font-size="10pt" font-family="Lato"  y="17">Order</text><text text-decoration="none" x="110.5" fill="#4b4b4b" font-size="10pt" font-family="noto_regular"  y="17"></text></g></g><g id="8200oyhziy"><g transform="translate(590 775)"><ellipse cx="65.00001782178879" cy="19.999997973442078" rx="65.00001782178879" ry="19.999997973442078" fill="rgba(0,70,138,1)" stroke="#00468a" stroke-width="2" stroke-linecap="round" stroke-linejoin="round"/></g><g transform="translate(606.0000178217888, 785.4999979734421) rotate(0, 49, 9.5)" width="98" height="19"><text text-decoration="none" x="3.5" fill="rgb(255, 255, 255)" font-size="10pt" font-family="Lato"  y="17">Navigate&#160;</text><text text-decoration="none" x="59.5" fill="rgb(255, 255, 255)" font-size="10pt" font-family="Lato"  y="17">Menu</text><text text-decoration="none" x="94.5" fill="#4b4b4b" font-size="10pt" font-family="noto_regular"  y="17"></text></g></g><g id="24wossbx4a"><g transform="translate(483.04999999999995 600.8)"><rect x="0" y="0" width="359.94873046875" height="57.76793384552002" fill="rgba(255,255,255,0.01)" stroke="rgba(255,255,255,0.01)" stroke-width="NaN" stroke-linecap="round" stroke-linejoin="round"/></g><g transform="translate(515.524365234375, 617.68396692276) rotate(0, 147.5, 12)" width="295" height="24"><text text-decoration="none" x="11" fill="rgb(0, 0, 0)" font-size="15pt" font-family="Lato"  y="21">Online&#160;</text><text text-decoration="none" x="77" fill="rgb(0, 0, 0)" font-size="15pt" font-family="Lato"  y="21">Food&#160;</text><text text-decoration="none" x="128" fill="rgb(0, 0, 0)" font-size="15pt" font-family="Lato"  y="21">Ordering&#160;</text><text text-decoration="none" x="216" fill="rgb(0, 0, 0)" font-size="15pt" font-family="Lato"  y="21">System</text><text text-decoration="none" x="284" fill="#4b4b4b" font-size="10pt" font-family="noto_regular"  y="21"></text></g></g><g id="27oi4zpvmk"><g><path d="M 444,833.95 L 595,895" fill="none" stroke="#a0a0a0" stroke-width="1.5" stroke-linecap="round" stroke-linejoin="round"/></g></g><g id="sqsqrf5gr9"><g><path d="M 443,826 L 600,695" fill="none" stroke="#a0a0a0" stroke-width="1.5" stroke-linecap="round" stroke-linejoin="round"/></g></g><g id="7v2tcduwix"><g><path d="M 443,829.95 L 595,745" fill="none" stroke="#a0a0a0" stroke-width="1.5" stroke-linecap="round" stroke-linejoin="round"/></g></g><g id="1zmui579ry"><g><path d="M 448,834 L 595,845" fill="none" stroke="#a0a0a0" stroke-width="1.5" stroke-linecap="round" stroke-linejoin="round"/></g></g><g id="dcry1puxqu"><g><path d="M 453,837 L 600,940" fill="none" stroke="#a0a0a0" stroke-width="1.5" stroke-linecap="round" stroke-linejoin="round"/></g></g><g id="6f1yajv3n6"><g><path d="M 447,832 L 600,995" fill="none" stroke="#a0a0a0" stroke-width="1.5" stroke-linecap="round" stroke-linejoin="round"/></g></g><g id="24oacnmzav"><g><path d="M 439,845 L 600,1050" fill="none" stroke="#a0a0a0" stroke-width="1.5" stroke-linecap="round" stroke-linejoin="round"/></g></g><g id="26dstt75bt"><g><path d="M 447,839 L 595,1110" fill="none" stroke="#a0a0a0" stroke-width="1.5" stroke-linecap="round" stroke-linejoin="round"/></g></g><g id="y1qla1pwbh"><g><path d="M 448,841 L 593,1258" fill="none" stroke="#a0a0a0" stroke-width="1.5" stroke-linecap="round" stroke-linejoin="round"/></g></g><g id="2lhf44qsp9"><g><path d="M 458,887 L 595,1330" fill="none" stroke="#a0a0a0" stroke-width="1.5" stroke-linecap="round" stroke-linejoin="round"/></g></g><g id="2ph8lsjcmb"><g><path d="M 708.95,754 L 920,925" fill="none" stroke="#a0a0a0" stroke-width="1.5" stroke-linecap="round" stroke-linejoin="round"/></g></g><g id="2o2y134set"><g><path d="M 714.95,1172.95 L 714.95,1172.95" fill="none" stroke="#a0a0a0" stroke-width="1.5" stroke-linecap="round" stroke-linejoin="round"/></g></g><g id="25umacjtcv"><g><path d="M 704.5999999999999,1184.9499999999998 L 898.05,967.9000000000001" fill="none" stroke="#a0a0a0" stroke-width="1.5" stroke-linecap="round" stroke-linejoin="round"/></g></g><g id="2ntiagbi6l"><g><path d="M 730,1300 L 911,951" fill="none" stroke="#a0a0a0" stroke-width="1.5" stroke-linecap="round" stroke-linejoin="round"/></g></g><g id="6eef3i2uri"><g><path d="M 711.95,1238 L 905,955" fill="none" stroke="#a0a0a0" stroke-width="1.5" stroke-linecap="round" stroke-linejoin="round"/></g></g><g id="8gw39ch4tl"><g><path d="M 718.95,1360 L 910,950" fill="none" stroke="#a0a0a0" stroke-width="1.5" stroke-linecap="round" stroke-linejoin="round"/></g></g><g id="psskbejca5"><g><path d="M 715,1060 L 917,950" fill="none" stroke="#a0a0a0" stroke-width="1.5" stroke-linecap="round" stroke-linejoin="round"/></g></g><g id="2earomlt73"><g transform="translate(534.45 1417.5)"><rect x="0" y="0" width="258.0000042915344" height="51.49998474121094" fill="rgba(255,255,255,0.01)" stroke="rgba(255,255,255,0.01)" stroke-width="NaN" stroke-linecap="round" stroke-linejoin="round"/></g><g transform="translate(562.4500021457673, 1433.7499923706055) rotate(0, 101, 9.5)" width="202" height="19"><text text-decoration="none" x="16" fill="rgb(0, 0, 0)" font-weight="bold" font-size="10pt" font-family="Lato"  y="17">Figure&#160;</text><text text-decoration="none" x="60" fill="rgb(0, 0, 0)" font-weight="bold" font-size="10pt" font-family="Lato"  y="17">:&#160;&#160;</text><text text-decoration="none" x="70" fill="rgb(0, 0, 0)" font-weight="bold" font-size="10pt" font-family="Lato"  y="17">Use&#160;</text><text text-decoration="none" x="97" fill="rgb(0, 0, 0)" font-weight="bold" font-size="10pt" font-family="Lato"  y="17">Case&#160;</text><text text-decoration="none" x="130" fill="rgb(0, 0, 0)" font-weight="bold" font-size="10pt" font-family="Lato"  y="17">Diagram</text><text text-decoration="none" x="186" fill="#4b4b4b" font-size="10pt" font-family="noto_regular"  y="17"></text></g></g></svg>