<?xml version="1.0" standalone="no"?>
<!DOCTYPE svg PUBLIC "-//W3C//DTD SVG 20010904//EN"
 "http://www.w3.org/TR/2001/REC-SVG-20010904/DTD/svg10.dtd">
<svg version="1.0" xmlns="http://www.w3.org/2000/svg"
 width="225.000000pt" height="225.000000pt" viewBox="0 0 225.000000 225.000000"
 preserveAspectRatio="xMidYMid meet">

<g transform="translate(0.000000,225.000000) scale(0.100000,-0.100000)"
fill="#000000" stroke="none">
<path d="M919 2012 c-70 -36 -105 -98 -95 -167 4 -25 10 -45 14 -45 4 0 61 20
126 45 65 25 121 44 123 42 2 -3 -47 -23 -109 -46 -150 -56 -141 -49 -115 -96
66 -117 248 -112 306 8 21 43 26 92 15 135 -7 24 -9 24 -71 7 -10 -3 -2 2 17
11 19 9 37 18 39 20 7 7 -50 94 -69 104 -38 20 -124 12 -181 -18z"/>
<path d="M1213 1991 c-53 -9 -58 -14 -43 -41 13 -25 32 -23 112 12 76 33 42
47 -69 29z"/>
<path d="M1461 1621 c-11 -7 -9 -10 10 -14 23 -4 22 -4 -3 -6 -28 -1 -28 -2
-28 -67 l0 -65 -47 3 -48 3 -3 63 -3 63 -72 -3 -72 -3 0 -90 c0 -87 1 -89 25
-96 18 -5 20 -7 7 -8 -35 -2 -83 29 -143 91 l-59 62 70 -64 c75 -71 86 -69 65
11 -38 138 -231 158 -317 31 -35 -53 -45 -123 -50 -365 l-6 -227 33 -68 c25
-50 58 -92 131 -164 53 -54 94 -98 91 -98 -4 0 -28 21 -54 47 l-48 47 -63 -60
c-34 -33 -89 -82 -122 -109 -80 -65 -95 -84 -95 -122 0 -43 30 -73 73 -73 27
0 52 15 131 81 54 44 120 102 146 127 l48 47 42 -158 c60 -231 58 -227 121
-227 44 0 89 32 89 65 0 48 -99 405 -121 437 -13 18 -56 69 -96 114 l-73 81
39 11 c72 22 85 53 97 240 6 97 5 112 -9 112 -34 0 -257 167 -257 193 0 6 6 4
13 -5 22 -28 144 -125 189 -152 25 -14 85 -35 134 -46 49 -11 67 -17 40 -14
-27 3 -55 8 -62 11 -10 4 -14 -3 -14 -24 l0 -30 113 -6 c156 -9 275 -9 281 2
11 18 8 384 -4 391 -6 4 -23 6 -38 4 -15 -2 -19 -1 -9 2 10 3 16 11 14 17 -4
15 -67 20 -86 8z m-96 -237 c105 -19 135 -39 135 -91 0 -64 -59 -88 -155 -63
-18 5 -4 6 38 3 56 -5 71 -3 87 12 25 22 26 77 3 96 -9 8 -64 24 -122 36 -125
25 -115 30 14 7z"/>
<path d="M1166 1513 c9 -38 14 -42 14 -10 0 14 -5 29 -10 32 -7 4 -8 -3 -4
-22z"/>
<path d="M1119 944 c-8 -10 -29 -23 -48 -31 l-34 -14 44 -45 44 -45 7 73 c3
40 5 74 4 76 -2 1 -9 -5 -17 -14z"/>
</g>
</svg>
