<?xml version="1.0" encoding="UTF-8"?>
<svg version="1.1" xmlns="http://www.w3.org/2000/svg" width="225" height="225">
<path d="M0 0 C74.25 0 148.5 0 225 0 C225 74.25 225 148.5 225 225 C150.75 225 76.5 225 0 225 C0 150.75 0 76.5 0 0 Z " fill="#FDFDFD" transform="translate(0,0)"/>
<path d="M0 0 C74.25 0 148.5 0 225 0 C225 74.25 225 148.5 225 225 C150.75 225 76.5 225 0 225 C0 150.75 0 76.5 0 0 Z M46 47 C45.34515625 47.58265625 44.6903125 48.1653125 44.015625 48.765625 C29.22026067 62.20361645 20.06473444 85.48943497 18.87353516 105.07983398 C17.99188285 130.35293095 24.41542793 154.9375036 41.9375 173.875 C43.9248558 175.95191807 45.95023604 177.98482228 48 180 C49.1446875 181.14275391 49.1446875 181.14275391 50.3125 182.30859375 C68.42831624 199.39207487 92.41602975 206.64245973 116.87109375 206.28125 C142.461475 205.31320078 165.15148405 192.60670129 182.69140625 174.546875 C200.60277785 154.78678316 207.01979529 129.05520932 206 103 C203.97027204 77.88936558 190.28958958 56.55449632 172 40 C134.22668332 8.72601038 80.01603346 13.39134419 46 47 Z " fill="#020202" transform="translate(0,0)"/>
<path d="M0 0 C0.70706085 0.00359528 1.4141217 0.00719055 2.14260864 0.01089478 C3.25473473 0.01067574 3.25473473 0.01067574 4.389328 0.01045227 C6.85130696 0.01115152 9.31321119 0.01894442 11.775177 0.02676392 C13.47768614 0.02862806 15.18019582 0.03005198 16.88270569 0.03105164 C21.37245148 0.03487714 25.86216513 0.0447077 30.35189819 0.05575562 C34.92983566 0.06596903 39.50777831 0.07054911 44.08572388 0.07559204 C53.07467032 0.08632994 62.06359287 0.10340675 71.05252075 0.12442017 C70.7416301 0.74063232 70.43073944 1.35684448 70.11042786 1.99172974 C69.41488193 3.39391726 68.7520611 4.81290427 68.12600708 6.24746704 C66.96144894 8.56309527 65.89821472 10.29419142 64.05252075 12.12442017 C60.57081132 13.10875438 57.32293085 12.88775773 53.74002075 12.62442017 C52.8086731 12.58832642 51.87732544 12.55223267 50.91775513 12.51504517 C48.62510268 12.42098763 46.34094984 12.28981045 44.05252075 12.12442017 C44.69189575 13.19692017 45.33127075 14.26942017 45.99002075 15.37442017 C47.61967555 18.10803466 48.24797987 19.90625663 49.05252075 23.12442017 C59.94252075 23.61942017 59.94252075 23.61942017 71.05252075 24.12442017 C70.39252075 25.44442017 69.73252075 26.76442017 69.05252075 28.12442017 C68.80115356 28.83082642 68.54978638 29.53723267 68.290802 30.26504517 C67.14260169 32.88119777 66.29881441 34.31705745 64.05252075 36.12442017 C58.96882233 36.83982336 54.15104453 36.58617326 49.05252075 36.12442017 C48.84627075 37.42379517 48.64002075 38.72317017 48.42752075 40.06192017 C46.6242983 48.02615267 42.08890996 54.18691783 35.3767395 58.77676392 C27.20387342 63.51565265 19.50059133 65.91983596 10.05252075 66.12442017 C15.81562403 73.51597547 21.62633802 80.86272224 27.55252075 88.12442017 C33.47636792 95.38847655 39.29768795 102.72594689 45.05252075 110.12442017 C45.52947388 110.73575806 46.006427 111.34709595 46.49783325 111.97695923 C47.91486502 113.79466241 49.32813328 115.61521942 50.74002075 117.43692017 C51.17467651 117.9946814 51.60933228 118.55244263 52.05715942 119.12710571 C55.05252075 123.0088932 55.05252075 123.0088932 55.05252075 124.12442017 C38.62848581 126.32072756 38.62848581 126.32072756 33.23513794 123.00820923 C29.9669519 119.88017931 27.70368984 116.04441899 25.37722778 112.19473267 C23.07415299 108.59538246 20.29326901 105.39465834 17.55252075 102.12442017 C16.45234618 100.78012306 15.35467222 99.43377544 14.259552 98.08535767 C13.72410767 97.42632446 13.18866333 96.76729126 12.63699341 96.08828735 C9.68007292 92.42334615 6.76309556 88.72641697 3.88919067 84.9960022 C1.8671463 82.37888508 -0.16439905 79.88890724 -2.40841675 77.45254517 C-6.64977867 72.77960606 -8.42491794 69.93691406 -8.44747925 63.49942017 C-8.32088376 61.70447705 -8.16840154 59.91020867 -7.94747925 58.12442017 C-6.88529175 58.07543579 -5.82310425 58.02645142 -4.72872925 57.97598267 C7.26884643 57.36858234 19.17915142 56.46906878 28.49002075 47.87442017 C30.66691899 44.24978629 30.66691899 44.24978629 33.05252075 36.12442017 C17.87252075 36.12442017 2.69252075 36.12442017 -12.94747925 36.12442017 C-5.94747925 25.12442017 -5.94747925 25.12442017 -4.94747925 24.12442017 C-2.35594818 23.96445851 0.21204095 23.8650332 2.806427 23.80801392 C3.58187363 23.78723282 4.35732025 23.76645172 5.15626526 23.74504089 C7.64242383 23.67946215 10.1286912 23.62062217 12.61502075 23.56192017 C14.2966728 23.51874283 15.97831369 23.47512881 17.65994263 23.43106079 C21.79068946 23.32377238 25.92154611 23.22252884 30.05252075 23.12442017 C25.40082406 17.06721584 21.57879667 14.85652007 14.05252075 13.12442017 C9.31875934 12.57013138 4.6280829 12.43090931 -0.13497925 12.37442017 C-1.99219604 12.32994751 -1.99219604 12.32994751 -3.88693237 12.28457642 C-6.90717719 12.21460935 -9.92668289 12.16155192 -12.94747925 12.12442017 C-11.80321659 10.31092817 -10.65702533 8.49865292 -9.50997925 6.68692017 C-8.55285034 5.17291626 -8.55285034 5.17291626 -7.5763855 3.62832642 C-5.13811745 -0.11970672 -4.44554303 0.00953597 0 0 Z " fill="#050505" transform="translate(84.94747924804688,56.875579833984375)"/>
<path d="M0 0 C0.33 0 0.66 0 1 0 C1 34.98 1 69.96 1 106 C-33.98 106 -68.96 106 -105 106 C-105 105.67 -105 105.34 -105 105 C-104.44352783 104.95101562 -103.88705566 104.90203125 -103.3137207 104.8515625 C-72.01905959 101.88239314 -45.87026132 88.66760863 -25 65 C-9.99609978 46.25695746 -1.92508145 23.81021794 0 0 Z " fill="#FCFCFC" transform="translate(224,119)"/>
<path d="M0 0 C0.33 0 0.66 0 1 0 C1.04898438 0.55647217 1.09796875 1.11294434 1.1484375 1.6862793 C3.52184635 26.70170168 11.93585584 49.22152915 29 68 C29.47034668 68.51949219 29.94069336 69.03898437 30.42529297 69.57421875 C50.66990841 91.64733781 76.51516122 102.05539061 106 105 C106 105.33 106 105.66 106 106 C71.02 106 36.04 106 0 106 C0 71.02 0 36.04 0 0 Z " fill="#FCFCFC" transform="translate(0,119)"/>
<path d="M0 0 C34.98 0 69.96 0 106 0 C106 33.66 106 67.32 106 102 C105.67 102 105.34 102 105 102 C104.86537354 101.17145508 104.86537354 101.17145508 104.72802734 100.32617188 C100.80814026 76.75803386 93.43792806 55.88910951 77 38 C76.55285645 37.51047852 76.10571289 37.02095703 75.64501953 36.51660156 C55.6908457 14.91156748 29.14264747 3.14201277 0 1 C0 0.67 0 0.34 0 0 Z " fill="#FCFCFC" transform="translate(119,0)"/>
<path d="M0 0 C33.99 0 67.98 0 103 0 C103 0.33 103 0.66 103 1 C101.27330078 1.20302734 101.27330078 1.20302734 99.51171875 1.41015625 C76.48880927 4.40433118 55.21991529 13.17698049 38 29 C37.51047852 29.44714355 37.02095703 29.89428711 36.51660156 30.35498047 C15.27302873 49.97531264 2.51013438 77.09915238 1 106 C0.67 106 0.34 106 0 106 C0 71.02 0 36.04 0 0 Z " fill="#FCFCFC" transform="translate(0,0)"/>
</svg>
