<?xml version="1.0" encoding="UTF-8"?>
<svg version="1.1" xmlns="http://www.w3.org/2000/svg" width="148" height="148">
<path d="M0 0 C48.84 0 97.68 0 148 0 C148 48.84 148 97.68 148 148 C99.16 148 50.32 148 0 148 C0 99.16 0 50.32 0 0 Z " fill="#FAD333" transform="translate(0,0)"/>
<path d="M0 0 C0.33 0 0.66 0 1 0 C1 22.77 1 45.54 1 69 C-21.77 69 -44.54 69 -68 69 C-68 68.67 -68 68.34 -68 68 C-67.20078125 67.90203125 -66.4015625 67.8040625 -65.578125 67.703125 C-45.90912444 65.02518596 -28.91834514 56.92622607 -15.94140625 41.58984375 C-6.84749049 29.45852354 -0.81734111 15.25703399 0 0 Z " fill="#FEFEFB" transform="translate(147,79)"/>
<path d="M0 0 C22.77 0 45.54 0 69 0 C69 21.45 69 42.9 69 65 C68.67 65 68.34 65 68 65 C67.70609375 63.5459375 67.70609375 63.5459375 67.40625 62.0625 C63.03822913 41.94021361 53.27378524 24.59326993 35.87890625 12.90234375 C25.0128738 6.13912927 12.85230945 1.68851658 0 1 C0 0.67 0 0.34 0 0 Z " fill="#FEFEFC" transform="translate(79,0)"/>
<path d="M0 0 C0.33 0 0.66 0 1 0 C1.09796875 0.79921875 1.1959375 1.5984375 1.296875 2.421875 C3.5228842 18.77152875 9.21104263 32.44079242 20 45 C20.50917969 45.60457031 21.01835937 46.20914063 21.54296875 46.83203125 C26.76233495 52.54111576 33.33355606 56.1977194 40 60 C40.73605469 60.42539063 41.47210938 60.85078125 42.23046875 61.2890625 C49.89270087 65.42824769 58.39398247 67.18811155 67 68 C67 68.33 67 68.66 67 69 C44.89 69 22.78 69 0 69 C0 46.23 0 23.46 0 0 Z " fill="#FEFEFC" transform="translate(0,79)"/>
<path d="M0 0 C21.45 0 42.9 0 65 0 C65 0.33 65 0.66 65 1 C63.94683594 1.1959375 62.89367188 1.391875 61.80859375 1.59375 C43.09706538 5.35920756 26.58381375 14.40015462 15 30 C9.02165052 39.21673559 4.136276 48.54467392 2.3125 59.4375 C2.18294922 60.16904297 2.05339844 60.90058594 1.91992188 61.65429688 C1.60570185 63.434877 1.30175932 65.21726583 1 67 C0.67 67 0.34 67 0 67 C0 44.89 0 22.78 0 0 Z " fill="#FEFEFC" transform="translate(0,0)"/>
<path d="M0 0 C1.21913086 -0.0309375 1.21913086 -0.0309375 2.46289062 -0.0625 C15.13982294 -0.14318056 25.56952716 5.67916975 34.7265625 14.11328125 C37.78290418 17.24402825 40.35987912 20.63358646 42.8125 24.25 C42.1525 25.57 41.4925 26.89 40.8125 28.25 C38.21693867 26.24770983 35.84947265 24.29014173 33.625 21.875 C24.31589049 13.18649779 13.59916646 9.66460484 1.0625 9.75 C0.09675049 9.75499512 -0.86899902 9.75999023 -1.86401367 9.76513672 C-13.96115673 10.05912578 -25.24574371 14.27711476 -33.9296875 23 C-34.44789062 23.556875 -34.96609375 24.11375 -35.5 24.6875 C-36.386875 25.533125 -37.27375 26.37875 -38.1875 27.25 C-40.35546875 26.91015625 -40.35546875 26.91015625 -42.1875 26.25 C-36.70486012 14.24674474 -24.92753211 6.24789938 -13.1875 1.25 C-8.80033269 -0.03879009 -4.5412032 0.02814069 0 0 Z " fill="#171618" transform="translate(73.1875,85.75)"/>
<path d="M0 0 C3.81253903 1.00329974 5.16143762 1.88999775 7.5625 4.9375 C9.65089158 9.11428316 9.00781459 14.38935365 8.5625 18.9375 C7.23149789 22.25554319 5.07988292 24.42011708 2.5625 26.9375 C-0.25 27.4375 -0.25 27.4375 -3.4375 26.9375 C-7.83720907 22.53779093 -9.57542875 19.20774033 -9.6875 13.0625 C-9.64449999 8.84235572 -9.18135222 6.29109716 -6.4375 2.9375 C-6.025 2.31875 -5.6125 1.7 -5.1875 1.0625 C-3.4375 -0.0625 -3.4375 -0.0625 0 0 Z " fill="#151518" transform="translate(55.4375,39.0625)"/>
<path d="M0 0 C3.09895572 2.69402551 5.81327214 6.00344823 6.203125 10.171875 C6.3008577 15.54717334 6.13430102 19.41048779 3 24 C0.84871822 26.15128178 -0.48112894 26.88026052 -3.4375 27.5625 C-7.37043868 26.699172 -8.71658893 24.17140427 -11 21 C-12.33827901 18.32344199 -12.20578556 16.17565948 -12.25 13.1875 C-12.27578125 12.14980469 -12.3015625 11.11210938 -12.328125 10.04296875 C-11.95408344 6.57417855 -11.07568054 4.77889007 -9 2 C-5.47427193 -0.35048538 -4.14986355 -0.66397817 0 0 Z " fill="#151518" transform="translate(96,39)"/>
</svg>
